<svg xmlns="http://www.w3.org/2000/svg" viewBox="0 0 64 64" width="64" height="64" shape-rendering="crispEdges">
  <!-- mon_map1_boss_boiling_boar walk S frame 0 — หมูป่าหม้อเดือด (Field Boss Map1, Fire family, bulked+re-tinted from elite boar), pivot (32,54) -->
  <rect x="12" y="47" width="6" height="8" fill="#171820"/>
  <rect x="22" y="49" width="6" height="6" fill="#171820"/>
  <rect x="37" y="49" width="6" height="6" fill="#171820"/>
  <rect x="48" y="47" width="6" height="8" fill="#171820"/>
  <ellipse cx="32" cy="40" rx="24" ry="14" fill="#9E3C32" stroke="#171820" stroke-width="1"/>
  <ellipse cx="32" cy="45" rx="13" ry="7" fill="#DD6840"/>
  <polygon points="17,31 21,20 25,30" fill="#DD6840"/>
  <polygon points="47,31 43,20 39,30" fill="#DD6840"/>
  <ellipse cx="32" cy="47" rx="6" ry="3" fill="#DD6840" stroke="#171820" stroke-width="1"/>
  <polygon points="25,47 23,40 28,45" fill="#E8BF4F"/>
  <polygon points="39,47 41,40 36,45" fill="#E8BF4F"/>
  <circle cx="26" cy="36" r="2" fill="#D84848"/>
  <circle cx="38" cy="36" r="2" fill="#D84848"/>
  <path d="M 15 38 L 19 42 L 16 45" fill="none" stroke="#F4B852" stroke-width="1"/>
  <path d="M 26 26 q 3 -7 0 -13" fill="none" stroke="#FFF0C5" stroke-width="2"/>
  <path d="M 38 26 q -3 -7 0 -13" fill="none" stroke="#F4B852" stroke-width="2"/>
</svg>
