<svg xmlns="http://www.w3.org/2000/svg" viewBox="0 0 64 64" width="64" height="64" shape-rendering="crispEdges">
  <!-- mon_map1_boss_boiling_boar idle S frame 1 — หมูป่าหม้อเดือด (Field Boss Map1, Fire family, bulked+re-tinted from elite boar), pivot (32,54) -->
  <rect x="12" y="47" width="6" height="8" fill="#171820"/>
  <rect x="22" y="49" width="6" height="6" fill="#171820"/>
  <rect x="37" y="49" width="6" height="6" fill="#171820"/>
  <rect x="48" y="47" width="6" height="8" fill="#171820"/>
  <ellipse cx="32" cy="41" rx="25" ry="13" fill="#9E3C32" stroke="#171820" stroke-width="1"/>
  <ellipse cx="32" cy="46" rx="14" ry="6" fill="#DD6840"/>
  <polygon points="16,33 20,22 24,32" fill="#DD6840"/>
  <polygon points="48,33 44,22 40,32" fill="#DD6840"/>
  <ellipse cx="32" cy="47" rx="6" ry="3" fill="#DD6840" stroke="#171820" stroke-width="1"/>
  <polygon points="25,47 23,40 28,45" fill="#E8BF4F"/>
  <polygon points="39,47 41,40 36,45" fill="#E8BF4F"/>
  <circle cx="26" cy="37" r="2" fill="#D84848"/>
  <circle cx="38" cy="37" r="2" fill="#D84848"/>
  <path d="M 14 39 L 18 43 L 15 46" fill="none" stroke="#F4B852" stroke-width="1"/>
  <path d="M 26 28 q 3 -7 0 -13" fill="none" stroke="#FFF0C5" stroke-width="2"/>
  <path d="M 38 28 q -3 -7 0 -13" fill="none" stroke="#F4B852" stroke-width="2"/>
</svg>
