<svg xmlns="http://www.w3.org/2000/svg" viewBox="0 0 64 64" width="64" height="64" shape-rendering="crispEdges">
  <!-- chr_swordsman idle SW frame 1 — foot pivot (32,54). Colors: Sand/Warm Wood (tunic) · Parchment (skin) · Deep Brown/Soil Brown (hair+pants) · Rift Violet/Rift Light/Rift Deep (signature violet sword). -->
  <rect x="26" y="40" width="6" height="9" fill="#68483A" stroke="#171820" stroke-width="1"/>
  <rect x="25" y="40" width="1" height="9" fill="#4A332E"/>
  <rect x="25" y="49" width="7" height="5" fill="#171820"/>
  <rect x="32" y="40" width="6" height="9" fill="#68483A" stroke="#171820" stroke-width="1"/>
  <rect x="31" y="40" width="1" height="9" fill="#4A332E"/>
  <rect x="32" y="49" width="7" height="5" fill="#171820"/>
  <rect x="19" y="26" width="6" height="12" fill="#D8AE70" stroke="#171820" stroke-width="1"/>
  <rect x="19" y="38" width="6" height="4" fill="#F2D6A0"/>
  <polygon points="23,25 39,25 37,39 25,39" fill="#D8AE70" stroke="#171820" stroke-width="1"/>
  <polygon points="23,25 27,25 27,39 25,39" fill="#B47E52"/>
  <rect x="29" y="28" width="4" height="2" fill="#FFF0C5"/>
  <rect x="25" y="37" width="12" height="3" fill="#8E6046"/>
  <rect x="30" y="37" width="2" height="3" fill="#FFF0C5"/>
  <rect x="38" y="25" width="6" height="12" fill="#D8AE70" stroke="#171820" stroke-width="1"/>
  <rect x="38" y="37" width="6" height="4" fill="#F2D6A0"/>
  <rect x="39" y="35" width="5" height="3" fill="#68483A"/>
  <rect x="38" y="38" width="7" height="2" fill="#171820"/>
  <polygon points="41,40 44,40 43,51 42,51" fill="#7B4FCB" stroke="#171820" stroke-width="1"/>
  <rect x="43" y="41" width="1" height="9" fill="#B79BEF"/>
  <rect x="40" y="34" width="3" height="2" fill="#171820"/>
  <polygon points="24,7 36,7 40,11 40,21 36,25 24,25 20,21 20,11" fill="#F2D6A0" stroke="#171820" stroke-width="1"/>
  <polygon points="20,11 22,5 25,9 28,4 32,4 35,9 38,5 40,11 40,14 20,14" fill="#4A332E" stroke="#171820" stroke-width="1"/>
  <polygon points="28,5 31,5 29,9" fill="#68483A"/>
  <rect x="27" y="17" width="2" height="2" fill="#171820"/>
</svg>
