<svg xmlns="http://www.w3.org/2000/svg" viewBox="0 0 64 64" width="64" height="64" shape-rendering="crispEdges">
  <!-- chr_swordsman idle N frame 1 — foot pivot (32,54). Colors: Sand/Warm Wood (tunic) · Parchment (skin) · Deep Brown/Soil Brown (hair+pants) · Moon Blue/Moon Light/Moon Deep (signature violet sword). -->
  <rect x="26" y="40" width="6" height="9" fill="#68483A" stroke="#171820" stroke-width="1"/>
  <rect x="25" y="40" width="1" height="9" fill="#4A332E"/>
  <rect x="25" y="49" width="7" height="5" fill="#171820"/>
  <rect x="32" y="40" width="6" height="9" fill="#68483A" stroke="#171820" stroke-width="1"/>
  <rect x="31" y="40" width="1" height="9" fill="#4A332E"/>
  <rect x="32" y="49" width="7" height="5" fill="#171820"/>
  <rect x="19" y="26" width="6" height="12" fill="#D8AE70" stroke="#171820" stroke-width="1"/>
  <rect x="19" y="38" width="6" height="4" fill="#F2D6A0"/>
  <polygon points="24,25 40,25 38,39 26,39" fill="#D8AE70" stroke="#171820" stroke-width="1"/>
  <polygon points="24,25 28,25 28,39 26,39" fill="#B47E52"/>
  <rect x="30" y="28" width="4" height="2" fill="#FFF0C5"/>
  <rect x="26" y="37" width="12" height="3" fill="#8E6046"/>
  <rect x="31" y="37" width="2" height="3" fill="#FFF0C5"/>
  <rect x="31" y="26" width="2" height="12" fill="#B47E52"/>
  <rect x="39" y="25" width="6" height="12" fill="#D8AE70" stroke="#171820" stroke-width="1"/>
  <rect x="39" y="37" width="6" height="4" fill="#F2D6A0"/>
  <rect x="40" y="35" width="5" height="3" fill="#68483A"/>
  <rect x="39" y="38" width="7" height="2" fill="#171820"/>
  <polygon points="42,40 45,40 44,51 43,51" fill="#7786C8" stroke="#171820" stroke-width="1"/>
  <rect x="44" y="41" width="1" height="9" fill="#B0B9EC"/>
  <rect x="41" y="34" width="3" height="2" fill="#171820"/>
  <polygon points="26,7 38,7 42,11 42,21 38,25 26,25 22,21 22,11" fill="#F2D6A0" stroke="#171820" stroke-width="1"/>
  <polygon points="21,11 23,4 27,8 30,3 34,3 37,8 41,4 43,11 43,21 39,26 27,26 23,21 21,11" fill="#4A332E" stroke="#171820" stroke-width="1"/>
  <polygon points="30,5 33,5 31,9" fill="#68483A"/>
</svg>
