<svg xmlns="http://www.w3.org/2000/svg" viewBox="0 0 64 64" width="64" height="64" shape-rendering="crispEdges">
  <!-- chr_swordsman walk N frame 2 — foot pivot (32,54). Colors: Sand/Warm Wood (tunic) · Parchment (skin) · Deep Brown/Soil Brown (hair+pants) · Rift Violet/Rift Light/Rift Deep (signature violet sword). -->
  <rect x="28" y="40" width="6" height="9" fill="#68483A" stroke="#171820" stroke-width="1"/>
  <rect x="27" y="40" width="1" height="9" fill="#4A332E"/>
  <rect x="27" y="49" width="7" height="5" fill="#171820"/>
  <rect x="30" y="40" width="6" height="9" fill="#68483A" stroke="#171820" stroke-width="1"/>
  <rect x="29" y="40" width="1" height="9" fill="#4A332E"/>
  <rect x="30" y="49" width="7" height="5" fill="#171820"/>
  <rect x="18" y="27" width="6" height="12" fill="#D8AE70" stroke="#171820" stroke-width="1"/>
  <rect x="18" y="39" width="6" height="4" fill="#F2D6A0"/>
  <polygon points="24,26 40,26 38,40 26,40" fill="#D8AE70" stroke="#171820" stroke-width="1"/>
  <polygon points="24,26 28,26 28,40 26,40" fill="#B47E52"/>
  <rect x="30" y="29" width="4" height="2" fill="#FFF0C5"/>
  <rect x="26" y="38" width="12" height="3" fill="#8E6046"/>
  <rect x="31" y="38" width="2" height="3" fill="#FFF0C5"/>
  <rect x="31" y="27" width="2" height="12" fill="#B47E52"/>
  <rect x="40" y="27" width="6" height="12" fill="#D8AE70" stroke="#171820" stroke-width="1"/>
  <rect x="40" y="39" width="6" height="4" fill="#F2D6A0"/>
  <rect x="41" y="37" width="5" height="3" fill="#68483A"/>
  <rect x="40" y="40" width="7" height="2" fill="#171820"/>
  <polygon points="43,42 46,42 45,53 44,53" fill="#7B4FCB" stroke="#171820" stroke-width="1"/>
  <rect x="45" y="43" width="1" height="9" fill="#B79BEF"/>
  <rect x="42" y="36" width="3" height="2" fill="#171820"/>
  <polygon points="26,8 38,8 42,12 42,22 38,26 26,26 22,22 22,12" fill="#F2D6A0" stroke="#171820" stroke-width="1"/>
  <polygon points="21,12 23,5 27,9 30,4 34,4 37,9 41,5 43,12 43,22 39,27 27,27 23,22 21,12" fill="#4A332E" stroke="#171820" stroke-width="1"/>
  <polygon points="30,6 33,6 31,10" fill="#68483A"/>
</svg>
