<svg xmlns="http://www.w3.org/2000/svg" viewBox="0 0 64 64" width="64" height="64" shape-rendering="crispEdges">
  <!-- chr_swordsman attack SW frame 1 — foot pivot (32,54). Colors: Sand/Warm Wood (tunic) · Parchment (skin) · Deep Brown/Soil Brown (hair+pants) · Rift Violet/Rift Light/Rift Deep (signature violet sword). -->
  <rect x="28" y="40" width="6" height="9" fill="#68483A" stroke="#171820" stroke-width="1"/>
  <rect x="27" y="40" width="1" height="9" fill="#4A332E"/>
  <rect x="27" y="49" width="7" height="5" fill="#171820"/>
  <rect x="32" y="40" width="6" height="9" fill="#68483A" stroke="#171820" stroke-width="1"/>
  <rect x="31" y="40" width="1" height="9" fill="#4A332E"/>
  <rect x="32" y="49" width="7" height="5" fill="#171820"/>
  <rect x="20" y="27" width="6" height="12" fill="#D8AE70" stroke="#171820" stroke-width="1"/>
  <rect x="20" y="39" width="6" height="4" fill="#F2D6A0"/>
  <polygon points="23,26 39,26 37,40 25,40" fill="#D8AE70" stroke="#171820" stroke-width="1"/>
  <polygon points="23,26 27,26 27,40 25,40" fill="#B47E52"/>
  <rect x="29" y="29" width="4" height="2" fill="#FFF0C5"/>
  <rect x="25" y="38" width="12" height="3" fill="#8E6046"/>
  <rect x="30" y="38" width="2" height="3" fill="#FFF0C5"/>
  <rect x="35" y="26" width="7" height="9" fill="#D8AE70" stroke="#171820" stroke-width="1"/>
  <rect x="43" y="27" width="4" height="4" fill="#F2D6A0"/>
  <rect x="45" y="26" width="3" height="4" fill="#68483A"/>
  <rect x="48" y="25" width="2" height="6" fill="#171820"/>
  <polygon points="15,24 50,22 50,26 15,30" fill="#7B4FCB" stroke="#171820" stroke-width="1"/>
  <polygon points="15,24 50,22 50,24 15,26" fill="#B79BEF"/>
  <polygon points="13,30 51,20 55,24 17,36" fill="#3E2A78"/>
  <polygon points="15,28 52,19 54,21 17,32" fill="#B79BEF"/>
  <polygon points="25,8 37,8 41,12 41,22 37,26 25,26 21,22 21,12" fill="#F2D6A0" stroke="#171820" stroke-width="1"/>
  <polygon points="21,12 23,6 26,10 29,5 33,5 36,10 39,6 41,12 41,15 21,15" fill="#4A332E" stroke="#171820" stroke-width="1"/>
  <polygon points="29,6 32,6 30,10" fill="#68483A"/>
  <rect x="28" y="18" width="2" height="2" fill="#171820"/>
</svg>
