<svg xmlns="http://www.w3.org/2000/svg" viewBox="0 0 64 64" width="64" height="64" shape-rendering="crispEdges">
  <!-- chr_swordsman attack W frame 0 — foot pivot (32,54). Colors: Sand/Warm Wood (tunic) · Parchment (skin) · Deep Brown/Soil Brown (hair+pants) · Moon Blue/Moon Light/Moon Deep (signature violet sword). -->
  <rect x="26" y="40" width="6" height="9" fill="#68483A" stroke="#171820" stroke-width="1"/>
  <rect x="25" y="40" width="1" height="9" fill="#4A332E"/>
  <rect x="25" y="49" width="7" height="5" fill="#171820"/>
  <rect x="34" y="40" width="6" height="9" fill="#68483A" stroke="#171820" stroke-width="1"/>
  <rect x="33" y="40" width="1" height="9" fill="#4A332E"/>
  <rect x="34" y="49" width="7" height="5" fill="#171820"/>
  <polygon points="22,26 38,26 36,40 24,40" fill="#D8AE70" stroke="#171820" stroke-width="1"/>
  <polygon points="22,26 26,26 26,40 24,40" fill="#B47E52"/>
  <rect x="28" y="29" width="4" height="2" fill="#FFF0C5"/>
  <rect x="24" y="38" width="12" height="3" fill="#8E6046"/>
  <rect x="29" y="38" width="2" height="3" fill="#FFF0C5"/>
  <rect x="35" y="23" width="6" height="10" fill="#D8AE70" stroke="#171820" stroke-width="1"/>
  <rect x="36" y="20" width="5" height="4" fill="#F2D6A0"/>
  <rect x="37" y="12" width="4" height="3" fill="#68483A"/>
  <rect x="36" y="9" width="6" height="2" fill="#171820"/>
  <polygon points="38,9 43,8 42,2 39,3" fill="#7786C8" stroke="#171820" stroke-width="1"/>
  <rect x="41" y="3" width="1" height="6" fill="#B0B9EC"/>
  <polygon points="23,8 34,8 38,12 38,22 34,26 23,26 19,22 16,18 19,15 19,12" fill="#F2D6A0" stroke="#171820" stroke-width="1"/>
  <polygon points="16,14 19,6 23,10 27,5 31,6 34,10 38,12 38,17 16,17" fill="#4A332E" stroke="#171820" stroke-width="1"/>
  <polygon points="26,6 29,6 27,10" fill="#68483A"/>
  <rect x="20" y="18" width="2" height="2" fill="#171820"/>
</svg>
