<svg xmlns="http://www.w3.org/2000/svg" viewBox="0 0 64 64" width="64" height="64" shape-rendering="crispEdges">
  <!-- chr_swordsman attack W frame 1 — foot pivot (32,54). Colors: Sand/Warm Wood (tunic) · Parchment (skin) · Deep Brown/Soil Brown (hair+pants) · Moon Blue/Moon Light/Moon Deep (signature violet sword). -->
  <rect x="28" y="40" width="6" height="9" fill="#68483A" stroke="#171820" stroke-width="1"/>
  <rect x="27" y="40" width="1" height="9" fill="#4A332E"/>
  <rect x="27" y="49" width="7" height="5" fill="#171820"/>
  <rect x="32" y="40" width="6" height="9" fill="#68483A" stroke="#171820" stroke-width="1"/>
  <rect x="31" y="40" width="1" height="9" fill="#4A332E"/>
  <rect x="32" y="49" width="7" height="5" fill="#171820"/>
  <polygon points="22,26 38,26 36,40 24,40" fill="#D8AE70" stroke="#171820" stroke-width="1"/>
  <polygon points="22,26 26,26 26,40 24,40" fill="#B47E52"/>
  <rect x="28" y="29" width="4" height="2" fill="#FFF0C5"/>
  <rect x="24" y="38" width="12" height="3" fill="#8E6046"/>
  <rect x="29" y="38" width="2" height="3" fill="#FFF0C5"/>
  <rect x="34" y="26" width="7" height="9" fill="#D8AE70" stroke="#171820" stroke-width="1"/>
  <rect x="42" y="27" width="4" height="4" fill="#F2D6A0"/>
  <rect x="44" y="26" width="3" height="4" fill="#68483A"/>
  <rect x="47" y="25" width="2" height="6" fill="#171820"/>
  <polygon points="14,24 49,22 49,26 14,30" fill="#7786C8" stroke="#171820" stroke-width="1"/>
  <polygon points="14,24 49,22 49,24 14,26" fill="#B0B9EC"/>
  <polygon points="12,30 50,20 54,24 16,36" fill="#4B568E"/>
  <polygon points="14,28 51,19 53,21 16,32" fill="#B0B9EC"/>
  <polygon points="25,8 36,8 40,12 40,22 36,26 25,26 21,22 18,18 21,15 21,12" fill="#F2D6A0" stroke="#171820" stroke-width="1"/>
  <polygon points="18,14 21,6 25,10 29,5 33,6 36,10 40,12 40,17 18,17" fill="#4A332E" stroke="#171820" stroke-width="1"/>
  <polygon points="28,6 31,6 29,10" fill="#68483A"/>
  <rect x="22" y="18" width="2" height="2" fill="#171820"/>
</svg>
