<svg xmlns="http://www.w3.org/2000/svg" viewBox="0 0 64 64" width="64" height="64" shape-rendering="crispEdges">
  <!-- chr_swordsman attack NW frame 0 — foot pivot (32,54). Colors: Sand/Warm Wood (tunic) · Parchment (skin) · Deep Brown/Soil Brown (hair+pants) · Moon Blue/Moon Light/Moon Deep (signature violet sword). -->
  <rect x="26" y="40" width="6" height="9" fill="#68483A" stroke="#171820" stroke-width="1"/>
  <rect x="25" y="40" width="1" height="9" fill="#4A332E"/>
  <rect x="25" y="49" width="7" height="5" fill="#171820"/>
  <rect x="34" y="40" width="6" height="9" fill="#68483A" stroke="#171820" stroke-width="1"/>
  <rect x="33" y="40" width="1" height="9" fill="#4A332E"/>
  <rect x="34" y="49" width="7" height="5" fill="#171820"/>
  <rect x="18" y="27" width="6" height="12" fill="#D8AE70" stroke="#171820" stroke-width="1"/>
  <rect x="18" y="39" width="6" height="4" fill="#F2D6A0"/>
  <polygon points="25,26 41,26 39,40 27,40" fill="#D8AE70" stroke="#171820" stroke-width="1"/>
  <polygon points="25,26 29,26 29,40 27,40" fill="#B47E52"/>
  <rect x="31" y="29" width="4" height="2" fill="#FFF0C5"/>
  <rect x="27" y="38" width="12" height="3" fill="#8E6046"/>
  <rect x="32" y="38" width="2" height="3" fill="#FFF0C5"/>
  <rect x="38" y="23" width="6" height="10" fill="#D8AE70" stroke="#171820" stroke-width="1"/>
  <rect x="39" y="20" width="5" height="4" fill="#F2D6A0"/>
  <rect x="40" y="12" width="4" height="3" fill="#68483A"/>
  <rect x="39" y="9" width="6" height="2" fill="#171820"/>
  <polygon points="41,9 46,8 45,2 42,3" fill="#7786C8" stroke="#171820" stroke-width="1"/>
  <rect x="44" y="3" width="1" height="6" fill="#B0B9EC"/>
  <polygon points="27,8 39,8 43,12 43,22 39,26 27,26 23,22 23,12" fill="#F2D6A0" stroke="#171820" stroke-width="1"/>
  <polygon points="23,12 25,6 28,10 31,5 35,5 38,10 41,6 43,12 43,15 23,15" fill="#4A332E" stroke="#171820" stroke-width="1"/>
  <polygon points="31,6 34,6 32,10" fill="#68483A"/>
</svg>
