<svg xmlns="http://www.w3.org/2000/svg" viewBox="0 0 64 64" width="64" height="64" shape-rendering="crispEdges">
  <!-- chr_swordsman attack SW frame 0 — foot pivot (32,54). Colors: Sand/Warm Wood (tunic) · Parchment (skin) · Deep Brown/Soil Brown (hair+pants) · Rift Violet/Rift Light/Rift Deep (signature violet sword). -->
  <rect x="26" y="40" width="6" height="9" fill="#68483A" stroke="#171820" stroke-width="1"/>
  <rect x="25" y="40" width="1" height="9" fill="#4A332E"/>
  <rect x="25" y="49" width="7" height="5" fill="#171820"/>
  <rect x="34" y="40" width="6" height="9" fill="#68483A" stroke="#171820" stroke-width="1"/>
  <rect x="33" y="40" width="1" height="9" fill="#4A332E"/>
  <rect x="34" y="49" width="7" height="5" fill="#171820"/>
  <rect x="18" y="27" width="6" height="12" fill="#D8AE70" stroke="#171820" stroke-width="1"/>
  <rect x="18" y="39" width="6" height="4" fill="#F2D6A0"/>
  <polygon points="23,26 39,26 37,40 25,40" fill="#D8AE70" stroke="#171820" stroke-width="1"/>
  <polygon points="23,26 27,26 27,40 25,40" fill="#B47E52"/>
  <rect x="29" y="29" width="4" height="2" fill="#FFF0C5"/>
  <rect x="25" y="38" width="12" height="3" fill="#8E6046"/>
  <rect x="30" y="38" width="2" height="3" fill="#FFF0C5"/>
  <rect x="36" y="23" width="6" height="10" fill="#D8AE70" stroke="#171820" stroke-width="1"/>
  <rect x="37" y="20" width="5" height="4" fill="#F2D6A0"/>
  <rect x="38" y="12" width="4" height="3" fill="#68483A"/>
  <rect x="37" y="9" width="6" height="2" fill="#171820"/>
  <polygon points="39,9 44,8 43,2 40,3" fill="#7B4FCB" stroke="#171820" stroke-width="1"/>
  <rect x="42" y="3" width="1" height="6" fill="#B79BEF"/>
  <polygon points="23,8 35,8 39,12 39,22 35,26 23,26 19,22 19,12" fill="#F2D6A0" stroke="#171820" stroke-width="1"/>
  <polygon points="19,12 21,6 24,10 27,5 31,5 34,10 37,6 39,12 39,15 19,15" fill="#4A332E" stroke="#171820" stroke-width="1"/>
  <polygon points="27,6 30,6 28,10" fill="#68483A"/>
  <rect x="26" y="18" width="2" height="2" fill="#171820"/>
</svg>
