<svg xmlns="http://www.w3.org/2000/svg" viewBox="0 0 64 64" width="64" height="64" shape-rendering="crispEdges">
  <!-- chr_swordsman idle W frame 0 — foot pivot (32,54). Colors: Sand/Warm Wood (tunic) · Parchment (skin) · Deep Brown/Soil Brown (hair+pants) · Moon Blue/Moon Light/Moon Deep (signature violet sword). -->
  <rect x="26" y="40" width="6" height="9" fill="#68483A" stroke="#171820" stroke-width="1"/>
  <rect x="25" y="40" width="1" height="9" fill="#4A332E"/>
  <rect x="25" y="49" width="7" height="5" fill="#171820"/>
  <rect x="32" y="40" width="6" height="9" fill="#68483A" stroke="#171820" stroke-width="1"/>
  <rect x="31" y="40" width="1" height="9" fill="#4A332E"/>
  <rect x="32" y="49" width="7" height="5" fill="#171820"/>
  <polygon points="22,26 38,26 36,40 24,40" fill="#D8AE70" stroke="#171820" stroke-width="1"/>
  <polygon points="22,26 26,26 26,40 24,40" fill="#B47E52"/>
  <rect x="28" y="29" width="4" height="2" fill="#FFF0C5"/>
  <rect x="24" y="38" width="12" height="3" fill="#8E6046"/>
  <rect x="29" y="38" width="2" height="3" fill="#FFF0C5"/>
  <rect x="37" y="27" width="6" height="12" fill="#D8AE70" stroke="#171820" stroke-width="1"/>
  <rect x="37" y="39" width="6" height="4" fill="#F2D6A0"/>
  <rect x="38" y="37" width="5" height="3" fill="#68483A"/>
  <rect x="37" y="40" width="7" height="2" fill="#171820"/>
  <polygon points="40,42 43,42 42,53 41,53" fill="#7786C8" stroke="#171820" stroke-width="1"/>
  <rect x="42" y="43" width="1" height="9" fill="#B0B9EC"/>
  <rect x="39" y="36" width="3" height="2" fill="#171820"/>
  <polygon points="24,8 35,8 39,12 39,22 35,26 24,26 20,22 17,18 20,15 20,12" fill="#F2D6A0" stroke="#171820" stroke-width="1"/>
  <polygon points="17,14 20,6 24,10 28,5 32,6 35,10 39,12 39,17 17,17" fill="#4A332E" stroke="#171820" stroke-width="1"/>
  <polygon points="27,6 30,6 28,10" fill="#68483A"/>
  <rect x="21" y="18" width="2" height="2" fill="#171820"/>
</svg>
