<svg xmlns="http://www.w3.org/2000/svg" viewBox="0 0 64 64" width="64" height="64" shape-rendering="crispEdges">
  <!-- chr_swordsman walk NW frame 2 — foot pivot (32,54). Colors: Sand/Warm Wood (tunic) · Parchment (skin) · Deep Brown/Soil Brown (hair+pants) · Rift Violet/Rift Light/Rift Deep (signature violet sword). -->
  <rect x="28" y="40" width="6" height="9" fill="#68483A" stroke="#171820" stroke-width="1"/>
  <rect x="27" y="40" width="1" height="9" fill="#4A332E"/>
  <rect x="27" y="49" width="7" height="5" fill="#171820"/>
  <rect x="30" y="40" width="6" height="9" fill="#68483A" stroke="#171820" stroke-width="1"/>
  <rect x="29" y="40" width="1" height="9" fill="#4A332E"/>
  <rect x="30" y="49" width="7" height="5" fill="#171820"/>
  <rect x="18" y="27" width="6" height="12" fill="#D8AE70" stroke="#171820" stroke-width="1"/>
  <rect x="18" y="39" width="6" height="4" fill="#F2D6A0"/>
  <polygon points="25,26 41,26 39,40 27,40" fill="#D8AE70" stroke="#171820" stroke-width="1"/>
  <polygon points="25,26 29,26 29,40 27,40" fill="#B47E52"/>
  <rect x="31" y="29" width="4" height="2" fill="#FFF0C5"/>
  <rect x="27" y="38" width="12" height="3" fill="#8E6046"/>
  <rect x="32" y="38" width="2" height="3" fill="#FFF0C5"/>
  <rect x="41" y="27" width="6" height="12" fill="#D8AE70" stroke="#171820" stroke-width="1"/>
  <rect x="41" y="39" width="6" height="4" fill="#F2D6A0"/>
  <rect x="42" y="37" width="5" height="3" fill="#68483A"/>
  <rect x="41" y="40" width="7" height="2" fill="#171820"/>
  <polygon points="44,42 47,42 46,53 45,53" fill="#7B4FCB" stroke="#171820" stroke-width="1"/>
  <rect x="46" y="43" width="1" height="9" fill="#B79BEF"/>
  <rect x="43" y="36" width="3" height="2" fill="#171820"/>
  <polygon points="28,8 40,8 44,12 44,22 40,26 28,26 24,22 24,12" fill="#F2D6A0" stroke="#171820" stroke-width="1"/>
  <polygon points="24,12 26,6 29,10 32,5 36,5 39,10 42,6 44,12 44,15 24,15" fill="#4A332E" stroke="#171820" stroke-width="1"/>
  <polygon points="32,6 35,6 33,10" fill="#68483A"/>
</svg>
