<svg xmlns="http://www.w3.org/2000/svg" viewBox="0 0 64 64" width="64" height="64" shape-rendering="crispEdges">
  <!-- chr_swordsman walk NW frame 3 — foot pivot (32,54). Colors: Sand/Warm Wood (tunic) · Parchment (skin) · Deep Brown/Soil Brown (hair+pants) · Moon Blue/Moon Light/Moon Deep (signature violet sword). -->
  <rect x="26" y="40" width="6" height="9" fill="#68483A" stroke="#171820" stroke-width="1"/>
  <rect x="25" y="40" width="1" height="9" fill="#4A332E"/>
  <rect x="25" y="49" width="7" height="5" fill="#171820"/>
  <rect x="32" y="40" width="6" height="9" fill="#68483A" stroke="#171820" stroke-width="1"/>
  <rect x="31" y="40" width="1" height="9" fill="#4A332E"/>
  <rect x="32" y="49" width="7" height="5" fill="#171820"/>
  <rect x="19" y="26" width="6" height="12" fill="#D8AE70" stroke="#171820" stroke-width="1"/>
  <rect x="19" y="38" width="6" height="4" fill="#F2D6A0"/>
  <polygon points="25,25 41,25 39,39 27,39" fill="#D8AE70" stroke="#171820" stroke-width="1"/>
  <polygon points="25,25 29,25 29,39 27,39" fill="#B47E52"/>
  <rect x="31" y="28" width="4" height="2" fill="#FFF0C5"/>
  <rect x="27" y="37" width="12" height="3" fill="#8E6046"/>
  <rect x="32" y="37" width="2" height="3" fill="#FFF0C5"/>
  <rect x="40" y="25" width="6" height="12" fill="#D8AE70" stroke="#171820" stroke-width="1"/>
  <rect x="40" y="37" width="6" height="4" fill="#F2D6A0"/>
  <rect x="41" y="35" width="5" height="3" fill="#68483A"/>
  <rect x="40" y="38" width="7" height="2" fill="#171820"/>
  <polygon points="43,40 46,40 45,51 44,51" fill="#7786C8" stroke="#171820" stroke-width="1"/>
  <rect x="45" y="41" width="1" height="9" fill="#B0B9EC"/>
  <rect x="42" y="34" width="3" height="2" fill="#171820"/>
  <polygon points="28,7 40,7 44,11 44,21 40,25 28,25 24,21 24,11" fill="#F2D6A0" stroke="#171820" stroke-width="1"/>
  <polygon points="24,11 26,5 29,9 32,4 36,4 39,9 42,5 44,11 44,14 24,14" fill="#4A332E" stroke="#171820" stroke-width="1"/>
  <polygon points="32,5 35,5 33,9" fill="#68483A"/>
</svg>
