<svg xmlns="http://www.w3.org/2000/svg" viewBox="0 0 64 64" width="64" height="64" shape-rendering="crispEdges">
  <!-- chr_swordsman attack NW frame 1 — foot pivot (32,54). Colors: Sand/Warm Wood (tunic) · Parchment (skin) · Deep Brown/Soil Brown (hair+pants) · Moon Blue/Moon Light/Moon Deep (signature violet sword). -->
  <rect x="28" y="40" width="6" height="9" fill="#68483A" stroke="#171820" stroke-width="1"/>
  <rect x="27" y="40" width="1" height="9" fill="#4A332E"/>
  <rect x="27" y="49" width="7" height="5" fill="#171820"/>
  <rect x="32" y="40" width="6" height="9" fill="#68483A" stroke="#171820" stroke-width="1"/>
  <rect x="31" y="40" width="1" height="9" fill="#4A332E"/>
  <rect x="32" y="49" width="7" height="5" fill="#171820"/>
  <rect x="20" y="27" width="6" height="12" fill="#D8AE70" stroke="#171820" stroke-width="1"/>
  <rect x="20" y="39" width="6" height="4" fill="#F2D6A0"/>
  <polygon points="25,26 41,26 39,40 27,40" fill="#D8AE70" stroke="#171820" stroke-width="1"/>
  <polygon points="25,26 29,26 29,40 27,40" fill="#B47E52"/>
  <rect x="31" y="29" width="4" height="2" fill="#FFF0C5"/>
  <rect x="27" y="38" width="12" height="3" fill="#8E6046"/>
  <rect x="32" y="38" width="2" height="3" fill="#FFF0C5"/>
  <rect x="37" y="26" width="7" height="9" fill="#D8AE70" stroke="#171820" stroke-width="1"/>
  <rect x="45" y="27" width="4" height="4" fill="#F2D6A0"/>
  <rect x="47" y="26" width="3" height="4" fill="#68483A"/>
  <rect x="50" y="25" width="2" height="6" fill="#171820"/>
  <polygon points="17,24 52,22 52,26 17,30" fill="#7786C8" stroke="#171820" stroke-width="1"/>
  <polygon points="17,24 52,22 52,24 17,26" fill="#B0B9EC"/>
  <polygon points="15,30 53,20 57,24 19,36" fill="#4B568E"/>
  <polygon points="17,28 54,19 56,21 19,32" fill="#B0B9EC"/>
  <polygon points="29,8 41,8 45,12 45,22 41,26 29,26 25,22 25,12" fill="#F2D6A0" stroke="#171820" stroke-width="1"/>
  <polygon points="25,12 27,6 30,10 33,5 37,5 40,10 43,6 45,12 45,15 25,15" fill="#4A332E" stroke="#171820" stroke-width="1"/>
  <polygon points="33,6 36,6 34,10" fill="#68483A"/>
</svg>
