<svg xmlns="http://www.w3.org/2000/svg" viewBox="0 0 64 64" width="64" height="64" shape-rendering="crispEdges">
  <!-- ดึ๋งๆ companion — เจลใส resonance teal + แกนแสงทอง, หน้า S, เฟรมยืน 1 -->
  <ellipse cx="32" cy="54" rx="14" ry="3" fill="#171820" opacity="0.35"/>
  <path d="M32,22 Q47,22 47,40 Q47,52 32,52 Q17,52 17,40 Q17,22 32,22 Z" fill="#35C6B0"/>
  <path d="M32,25 Q44,25 44,39 Q44,49 32,49 Q20,49 20,39 Q20,25 32,25 Z" fill="#7CE9D0"/>
  <circle cx="32" cy="38" r="5" fill="#E8BF4F"/>
  <circle cx="32" cy="38" r="2.5" fill="#FFF0C5"/>
  <circle cx="26" cy="35" r="2.6" fill="#171820"/>
  <circle cx="38" cy="35" r="2.6" fill="#171820"/>
  <circle cx="26.8" cy="34.2" r="0.9" fill="#FFF0C5"/>
  <circle cx="38.8" cy="34.2" r="0.9" fill="#FFF0C5"/>
  <path d="M28,43 Q32,46 36,43" stroke="#167C78" stroke-width="2" fill="none"/>
  <ellipse cx="24" cy="28" rx="4" ry="2.5" fill="#A4CCC0" transform="rotate(-25 24 28)"/>
</svg>
