<svg xmlns="http://www.w3.org/2000/svg" viewBox="0 0 64 64" width="64" height="64" shape-rendering="crispEdges">
  <!-- mon_map1_boar_elite idle S frame 0 — หมูป่าหนังหนา (Fire family, ~15% ใหญ่กว่า), pivot (32,54) -->
  <rect x="12" y="47" width="5" height="7" fill="#2B2230"/>
  <rect x="22" y="49" width="5" height="5" fill="#2B2230"/>
  <rect x="37" y="49" width="5" height="5" fill="#2B2230"/>
  <rect x="48" y="47" width="5" height="7" fill="#2B2230"/>
  <ellipse cx="32" cy="40" rx="22" ry="13" fill="#4A332E" stroke="#2B2230" stroke-width="1"/>
  <ellipse cx="32" cy="45" rx="12" ry="6" fill="#68483A"/>
  <polygon points="18,31 21,22 25,30" fill="#68483A"/>
  <polygon points="46,31 43,22 39,30" fill="#68483A"/>
  <ellipse cx="32" cy="47" rx="5" ry="3" fill="#68483A" stroke="#2B2230" stroke-width="1"/>
  <polygon points="25,47 23,42 28,45" fill="#F2D6A0"/>
  <polygon points="39,47 41,42 36,45" fill="#F2D6A0"/>
  <circle cx="26" cy="36" r="2" fill="#171820"/>
  <circle cx="38" cy="36" r="2" fill="#171820"/>
  <path d="M 15 38 L 19 42 L 16 45" fill="none" stroke="#D84848" stroke-width="1"/>
  <path d="M 26 26 q 2 -5 0 -9" fill="none" stroke="#F4B852" stroke-width="1.5"/>
  <path d="M 38 26 q -2 -5 0 -9" fill="none" stroke="#DD6840" stroke-width="1.5"/>
</svg>
