<svg xmlns="http://www.w3.org/2000/svg" viewBox="0 0 64 64" width="64" height="64" shape-rendering="crispEdges">
  <!-- mon_map1_boar idle S frame 1 — หมูป่า (Bark/Sand family), pivot (32,54) -->
  <rect x="15" y="47" width="4" height="7" fill="#4A332E"/>
  <rect x="24" y="49" width="4" height="5" fill="#4A332E"/>
  <rect x="36" y="49" width="4" height="5" fill="#4A332E"/>
  <rect x="45" y="47" width="4" height="7" fill="#4A332E"/>
  <ellipse cx="32" cy="41" rx="20" ry="10" fill="#68483A" stroke="#4A332E" stroke-width="1"/>
  <ellipse cx="32" cy="45" rx="11" ry="5" fill="#8E6046"/>
  <polygon points="19,35 22,26 26,34" fill="#8E6046"/>
  <polygon points="45,35 42,26 38,34" fill="#8E6046"/>
  <ellipse cx="32" cy="46" rx="5" ry="3" fill="#8E6046" stroke="#4A332E" stroke-width="1"/>
  <polygon points="25,46 23,41 28,44" fill="#FFF0C5"/>
  <polygon points="39,46 41,41 36,44" fill="#FFF0C5"/>
  <circle cx="26" cy="38" r="2" fill="#171820"/>
  <circle cx="38" cy="38" r="2" fill="#171820"/>
</svg>
