<svg xmlns="http://www.w3.org/2000/svg" viewBox="0 0 64 64" width="64" height="64" shape-rendering="crispEdges">
  <!-- chr_swordsman hit S frame 0 (prepared ahead — not yet wired into entity.json, see extra/README.md) — foot pivot (32,54). Colors: Sand/Warm Wood (tunic) · Parchment (skin) · Deep Brown/Soil Brown (hair+pants) · Rift Violet/Rift Light/Rift Deep (signature violet sword). -->
  <rect x="25" y="40" width="6" height="9" fill="#68483A" stroke="#171820" stroke-width="1"/>
  <rect x="24" y="40" width="1" height="9" fill="#4A332E"/>
  <rect x="24" y="49" width="7" height="5" fill="#171820"/>
  <rect x="34" y="40" width="6" height="9" fill="#68483A" stroke="#171820" stroke-width="1"/>
  <rect x="33" y="40" width="1" height="9" fill="#4A332E"/>
  <rect x="34" y="49" width="7" height="5" fill="#171820"/>
  <rect x="21" y="28" width="6" height="12" fill="#D8AE70" stroke="#171820" stroke-width="1"/>
  <rect x="21" y="40" width="6" height="4" fill="#F2D6A0"/>
  <polygon points="24,27 40,27 38,41 26,41" fill="#D8AE70" stroke="#171820" stroke-width="1"/>
  <polygon points="24,27 28,27 28,41 26,41" fill="#B47E52"/>
  <rect x="30" y="30" width="4" height="2" fill="#FFF0C5"/>
  <rect x="26" y="39" width="12" height="3" fill="#8E6046"/>
  <rect x="31" y="39" width="2" height="3" fill="#FFF0C5"/>
  <rect x="41" y="29" width="6" height="12" fill="#D8AE70" stroke="#171820" stroke-width="1"/>
  <rect x="41" y="41" width="6" height="4" fill="#F2D6A0"/>
  <rect x="42" y="39" width="5" height="3" fill="#68483A"/>
  <rect x="41" y="42" width="7" height="2" fill="#171820"/>
  <polygon points="44,44 47,44 46,55 45,55" fill="#7B4FCB" stroke="#171820" stroke-width="1"/>
  <rect x="46" y="45" width="1" height="9" fill="#B79BEF"/>
  <rect x="43" y="38" width="3" height="2" fill="#171820"/>
  <polygon points="28,9 40,9 44,13 44,23 40,27 28,27 24,23 24,13" fill="#F2D6A0" stroke="#171820" stroke-width="1"/>
  <polygon points="24,13 26,7 29,11 32,6 36,6 39,11 42,7 44,13 44,16 24,16" fill="#4A332E" stroke="#171820" stroke-width="1"/>
  <polygon points="32,7 35,7 33,11" fill="#68483A"/>
  <rect x="29" y="19" width="2" height="2" fill="#171820"/>
  <rect x="37" y="19" width="2" height="2" fill="#171820"/>
</svg>
