<svg xmlns="http://www.w3.org/2000/svg" viewBox="0 0 64 64" width="64" height="64" shape-rendering="crispEdges">
  <!-- chr_swordsman dead S frame 2 (prepared ahead — not yet wired into entity.json, see extra/README.md) — foot pivot (32,54). Colors: Sand/Warm Wood (tunic) · Parchment (skin) · Deep Brown/Soil Brown (hair+pants) · Moon Blue/Moon Light/Moon Deep (signature violet sword). -->
  <rect x="20" y="43" width="6" height="4" fill="#68483A" stroke="#171820" stroke-width="1"/>
  <rect x="19" y="43" width="1" height="4" fill="#4A332E"/>
  <rect x="19" y="52" width="7" height="5" fill="#171820"/>
  <rect x="39" y="43" width="6" height="4" fill="#68483A" stroke="#171820" stroke-width="1"/>
  <rect x="38" y="43" width="1" height="4" fill="#4A332E"/>
  <rect x="39" y="52" width="7" height="5" fill="#171820"/>
  <rect x="25" y="32" width="6" height="12" fill="#D8AE70" stroke="#171820" stroke-width="1"/>
  <rect x="25" y="44" width="6" height="4" fill="#F2D6A0"/>
  <polygon points="24,31 40,31 38,45 26,45" fill="#D8AE70" stroke="#171820" stroke-width="1"/>
  <polygon points="24,31 28,31 28,45 26,45" fill="#B47E52"/>
  <rect x="30" y="34" width="4" height="2" fill="#FFF0C5"/>
  <rect x="26" y="43" width="12" height="3" fill="#8E6046"/>
  <rect x="31" y="43" width="2" height="3" fill="#FFF0C5"/>
  <rect x="42" y="37" width="6" height="11" fill="#D8AE70" stroke="#171820" stroke-width="1"/>
  <rect x="43" y="48" width="5" height="4" fill="#F2D6A0"/>
  <rect x="42" y="48" width="4" height="3" fill="#68483A"/>
  <rect x="40" y="51" width="7" height="2" fill="#171820"/>
  <polygon points="39,53 42,53 34,63 32,62" fill="#7786C8" stroke="#171820" stroke-width="1"/>
  <rect x="39" y="54" width="1" height="8" fill="#B0B9EC"/>
  <polygon points="29,13 41,13 45,17 45,27 41,31 29,31 25,27 25,17" fill="#F2D6A0" stroke="#171820" stroke-width="1"/>
  <polygon points="25,17 27,11 30,15 33,10 37,10 40,15 43,11 45,17 45,20 25,20" fill="#4A332E" stroke="#171820" stroke-width="1"/>
  <polygon points="33,11 36,11 34,15" fill="#68483A"/>
  <rect x="30" y="23" width="2" height="2" fill="#171820"/>
  <rect x="38" y="23" width="2" height="2" fill="#171820"/>
</svg>
