<svg xmlns="http://www.w3.org/2000/svg" viewBox="0 0 64 64" width="64" height="64" shape-rendering="crispEdges">
  <!-- chr_swordsman hit S frame 1 (prepared ahead — not yet wired into entity.json, see extra/README.md) — foot pivot (32,54). Colors: Sand/Warm Wood (tunic) · Parchment (skin) · Deep Brown/Soil Brown (hair+pants) · Moon Blue/Moon Light/Moon Deep (signature violet sword). -->
  <rect x="24" y="40" width="6" height="9" fill="#68483A" stroke="#171820" stroke-width="1"/>
  <rect x="23" y="40" width="1" height="9" fill="#4A332E"/>
  <rect x="23" y="49" width="7" height="5" fill="#171820"/>
  <rect x="35" y="40" width="6" height="9" fill="#68483A" stroke="#171820" stroke-width="1"/>
  <rect x="34" y="40" width="1" height="9" fill="#4A332E"/>
  <rect x="35" y="49" width="7" height="5" fill="#171820"/>
  <rect x="22" y="29" width="6" height="12" fill="#D8AE70" stroke="#171820" stroke-width="1"/>
  <rect x="22" y="41" width="6" height="4" fill="#F2D6A0"/>
  <polygon points="24,28 40,28 38,42 26,42" fill="#D8AE70" stroke="#171820" stroke-width="1"/>
  <polygon points="24,28 28,28 28,42 26,42" fill="#B47E52"/>
  <rect x="30" y="31" width="4" height="2" fill="#FFF0C5"/>
  <rect x="26" y="40" width="12" height="3" fill="#8E6046"/>
  <rect x="31" y="40" width="2" height="3" fill="#FFF0C5"/>
  <rect x="42" y="31" width="6" height="12" fill="#D8AE70" stroke="#171820" stroke-width="1"/>
  <rect x="42" y="43" width="6" height="4" fill="#F2D6A0"/>
  <rect x="43" y="41" width="5" height="3" fill="#68483A"/>
  <rect x="42" y="44" width="7" height="2" fill="#171820"/>
  <polygon points="45,46 48,46 47,57 46,57" fill="#7786C8" stroke="#171820" stroke-width="1"/>
  <rect x="47" y="47" width="1" height="9" fill="#B0B9EC"/>
  <rect x="44" y="40" width="3" height="2" fill="#171820"/>
  <polygon points="29,10 41,10 45,14 45,24 41,28 29,28 25,24 25,14" fill="#F2D6A0" stroke="#171820" stroke-width="1"/>
  <polygon points="25,14 27,8 30,12 33,7 37,7 40,12 43,8 45,14 45,17 25,17" fill="#4A332E" stroke="#171820" stroke-width="1"/>
  <polygon points="33,8 36,8 34,12" fill="#68483A"/>
  <rect x="30" y="20" width="2" height="2" fill="#171820"/>
  <rect x="38" y="20" width="2" height="2" fill="#171820"/>
</svg>
