<svg xmlns="http://www.w3.org/2000/svg" viewBox="0 0 64 64" width="64" height="64" shape-rendering="crispEdges">
  <!-- chr_swordsman jump S frame 0 (prepared ahead — not yet wired into entity.json, see extra/README.md) — foot pivot (32,54). Colors: Sand/Warm Wood (tunic) · Parchment (skin) · Deep Brown/Soil Brown (hair+pants) · Moon Blue/Moon Light/Moon Deep (signature violet sword). -->
  <rect x="25" y="37" width="6" height="9" fill="#68483A" stroke="#171820" stroke-width="1"/>
  <rect x="24" y="37" width="1" height="9" fill="#4A332E"/>
  <rect x="24" y="46" width="7" height="5" fill="#171820"/>
  <rect x="33" y="37" width="6" height="9" fill="#68483A" stroke="#171820" stroke-width="1"/>
  <rect x="32" y="37" width="1" height="9" fill="#4A332E"/>
  <rect x="33" y="46" width="7" height="5" fill="#171820"/>
  <rect x="18" y="23" width="6" height="12" fill="#D8AE70" stroke="#171820" stroke-width="1"/>
  <rect x="18" y="35" width="6" height="4" fill="#F2D6A0"/>
  <polygon points="24,22 40,22 38,36 26,36" fill="#D8AE70" stroke="#171820" stroke-width="1"/>
  <polygon points="24,22 28,22 28,36 26,36" fill="#B47E52"/>
  <rect x="30" y="25" width="4" height="2" fill="#FFF0C5"/>
  <rect x="26" y="34" width="12" height="3" fill="#8E6046"/>
  <rect x="31" y="34" width="2" height="3" fill="#FFF0C5"/>
  <rect x="39" y="19" width="6" height="12" fill="#D8AE70" stroke="#171820" stroke-width="1"/>
  <rect x="39" y="31" width="6" height="4" fill="#F2D6A0"/>
  <rect x="40" y="29" width="5" height="3" fill="#68483A"/>
  <rect x="39" y="32" width="7" height="2" fill="#171820"/>
  <polygon points="42,34 45,34 44,45 43,45" fill="#7786C8" stroke="#171820" stroke-width="1"/>
  <rect x="44" y="35" width="1" height="9" fill="#B0B9EC"/>
  <rect x="41" y="28" width="3" height="2" fill="#171820"/>
  <polygon points="26,4 38,4 42,8 42,18 38,22 26,22 22,18 22,8" fill="#F2D6A0" stroke="#171820" stroke-width="1"/>
  <polygon points="22,8 24,2 27,6 30,1 34,1 37,6 40,2 42,8 42,11 22,11" fill="#4A332E" stroke="#171820" stroke-width="1"/>
  <polygon points="30,2 33,2 31,6" fill="#68483A"/>
  <rect x="27" y="14" width="2" height="2" fill="#171820"/>
  <rect x="35" y="14" width="2" height="2" fill="#171820"/>
</svg>
