<svg xmlns="http://www.w3.org/2000/svg" viewBox="0 0 64 64" width="64" height="64" shape-rendering="crispEdges">
  <!-- chr_swordsman crit S frame 2 (prepared ahead — not yet wired into entity.json, see extra/README.md) — foot pivot (32,54). Colors: Sand/Warm Wood (tunic) · Parchment (skin) · Deep Brown/Soil Brown (hair+pants) · Moon Blue/Moon Light/Moon Deep (signature violet sword). -->
  <rect x="27" y="40" width="6" height="9" fill="#68483A" stroke="#171820" stroke-width="1"/>
  <rect x="26" y="40" width="1" height="9" fill="#4A332E"/>
  <rect x="26" y="49" width="7" height="5" fill="#171820"/>
  <rect x="32" y="40" width="6" height="9" fill="#68483A" stroke="#171820" stroke-width="1"/>
  <rect x="31" y="40" width="1" height="9" fill="#4A332E"/>
  <rect x="32" y="49" width="7" height="5" fill="#171820"/>
  <rect x="19" y="27" width="6" height="12" fill="#D8AE70" stroke="#171820" stroke-width="1"/>
  <rect x="19" y="39" width="6" height="4" fill="#F2D6A0"/>
  <polygon points="24,27 40,27 38,41 26,41" fill="#D8AE70" stroke="#171820" stroke-width="1"/>
  <polygon points="24,27 28,27 28,41 26,41" fill="#B47E52"/>
  <rect x="30" y="30" width="4" height="2" fill="#FFF0C5"/>
  <rect x="26" y="39" width="12" height="3" fill="#8E6046"/>
  <rect x="31" y="39" width="2" height="3" fill="#FFF0C5"/>
  <rect x="33" y="28" width="8" height="10" fill="#D8AE70" stroke="#171820" stroke-width="1"/>
  <rect x="43" y="34" width="4" height="4" fill="#F2D6A0"/>
  <rect x="45" y="33" width="3" height="4" fill="#68483A"/>
  <rect x="47" y="31" width="2" height="7" fill="#171820"/>
  <polygon points="12,50 48,30 50,34 15,55" fill="#7786C8" stroke="#171820" stroke-width="1"/>
  <polygon points="13,48 48,28 49,30 14,51" fill="#B0B9EC"/>
  <polygon points="8,54 50,24 56,30 12,60" fill="#4B568E"/>
  <polygon points="10,52 51,23 53,26 12,56" fill="#B0B9EC"/>
  <rect x="6" y="56" width="2" height="2" fill="#B0B9EC"/>
  <rect x="54" y="24" width="2" height="2" fill="#B0B9EC"/>
  <polygon points="26,9 38,9 42,13 42,23 38,27 26,27 22,23 22,13" fill="#F2D6A0" stroke="#171820" stroke-width="1"/>
  <polygon points="22,13 24,7 27,11 30,6 34,6 37,11 40,7 42,13 42,16 22,16" fill="#4A332E" stroke="#171820" stroke-width="1"/>
  <polygon points="30,7 33,7 31,11" fill="#68483A"/>
  <rect x="27" y="19" width="2" height="2" fill="#171820"/>
  <rect x="35" y="19" width="2" height="2" fill="#171820"/>
</svg>
