<svg xmlns="http://www.w3.org/2000/svg" viewBox="0 0 64 64" width="64" height="64" shape-rendering="crispEdges">
  <!-- chr_swordsman jump S frame 1 (prepared ahead — not yet wired into entity.json, see extra/README.md) — foot pivot (32,54). Colors: Sand/Warm Wood (tunic) · Parchment (skin) · Deep Brown/Soil Brown (hair+pants) · Moon Blue/Moon Light/Moon Deep (signature violet sword). -->
  <rect x="24" y="39" width="6" height="9" fill="#68483A" stroke="#171820" stroke-width="1"/>
  <rect x="23" y="39" width="1" height="9" fill="#4A332E"/>
  <rect x="23" y="48" width="7" height="5" fill="#171820"/>
  <rect x="34" y="39" width="6" height="9" fill="#68483A" stroke="#171820" stroke-width="1"/>
  <rect x="33" y="39" width="1" height="9" fill="#4A332E"/>
  <rect x="34" y="48" width="7" height="5" fill="#171820"/>
  <rect x="19" y="25" width="6" height="12" fill="#D8AE70" stroke="#171820" stroke-width="1"/>
  <rect x="19" y="37" width="6" height="4" fill="#F2D6A0"/>
  <polygon points="24,24 40,24 38,38 26,38" fill="#D8AE70" stroke="#171820" stroke-width="1"/>
  <polygon points="24,24 28,24 28,38 26,38" fill="#B47E52"/>
  <rect x="30" y="27" width="4" height="2" fill="#FFF0C5"/>
  <rect x="26" y="36" width="12" height="3" fill="#8E6046"/>
  <rect x="31" y="36" width="2" height="3" fill="#FFF0C5"/>
  <rect x="39" y="23" width="6" height="12" fill="#D8AE70" stroke="#171820" stroke-width="1"/>
  <rect x="39" y="35" width="6" height="4" fill="#F2D6A0"/>
  <rect x="40" y="33" width="5" height="3" fill="#68483A"/>
  <rect x="39" y="36" width="7" height="2" fill="#171820"/>
  <polygon points="42,38 45,38 44,49 43,49" fill="#7786C8" stroke="#171820" stroke-width="1"/>
  <rect x="44" y="39" width="1" height="9" fill="#B0B9EC"/>
  <rect x="41" y="32" width="3" height="2" fill="#171820"/>
  <polygon points="26,6 38,6 42,10 42,20 38,24 26,24 22,20 22,10" fill="#F2D6A0" stroke="#171820" stroke-width="1"/>
  <polygon points="22,10 24,4 27,8 30,3 34,3 37,8 40,4 42,10 42,13 22,13" fill="#4A332E" stroke="#171820" stroke-width="1"/>
  <polygon points="30,4 33,4 31,8" fill="#68483A"/>
  <rect x="27" y="16" width="2" height="2" fill="#171820"/>
  <rect x="35" y="16" width="2" height="2" fill="#171820"/>
</svg>
