<svg xmlns="http://www.w3.org/2000/svg" viewBox="0 0 64 64" width="64" height="64" shape-rendering="crispEdges">
  <!-- chr_swordsman skill S frame 1 (prepared ahead — not yet wired into entity.json, see extra/README.md) — foot pivot (32,54). Colors: Sand/Warm Wood (tunic) · Parchment (skin) · Deep Brown/Soil Brown (hair+pants) · Rift Violet/Rift Light/Rift Deep (signature violet sword). -->
  <rect x="26" y="40" width="6" height="9" fill="#68483A" stroke="#171820" stroke-width="1"/>
  <rect x="25" y="40" width="1" height="9" fill="#4A332E"/>
  <rect x="25" y="49" width="7" height="5" fill="#171820"/>
  <rect x="33" y="40" width="6" height="9" fill="#68483A" stroke="#171820" stroke-width="1"/>
  <rect x="32" y="40" width="1" height="9" fill="#4A332E"/>
  <rect x="33" y="49" width="7" height="5" fill="#171820"/>
  <rect x="18" y="25" width="6" height="12" fill="#D8AE70" stroke="#171820" stroke-width="1"/>
  <rect x="18" y="37" width="6" height="4" fill="#F2D6A0"/>
  <polygon points="24,24 40,24 38,38 26,38" fill="#D8AE70" stroke="#171820" stroke-width="1"/>
  <polygon points="24,24 28,24 28,38 26,38" fill="#B47E52"/>
  <rect x="30" y="27" width="4" height="2" fill="#FFF0C5"/>
  <rect x="26" y="36" width="12" height="3" fill="#8E6046"/>
  <rect x="31" y="36" width="2" height="3" fill="#FFF0C5"/>
  <rect x="37" y="17" width="6" height="12" fill="#D8AE70" stroke="#171820" stroke-width="1"/>
  <rect x="38" y="14" width="5" height="4" fill="#F2D6A0"/>
  <rect x="39" y="6" width="4" height="3" fill="#68483A"/>
  <rect x="37" y="3" width="8" height="2" fill="#171820"/>
  <polygon points="39,3 46,2 44,-5 41,-4" fill="#7B4FCB" stroke="#171820" stroke-width="1"/>
  <rect x="43" y="-3" width="1" height="6" fill="#B79BEF"/>
  <polygon points="32,15 40,11 48,15 40,19" fill="#3E2A78"/>
  <polygon points="34,15 40,13 46,15 40,17" fill="#B79BEF"/>
  <polygon points="26,6 38,6 42,10 42,20 38,24 26,24 22,20 22,10" fill="#F2D6A0" stroke="#171820" stroke-width="1"/>
  <polygon points="22,10 24,4 27,8 30,3 34,3 37,8 40,4 42,10 42,13 22,13" fill="#4A332E" stroke="#171820" stroke-width="1"/>
  <polygon points="30,4 33,4 31,8" fill="#68483A"/>
  <rect x="27" y="16" width="2" height="2" fill="#171820"/>
  <rect x="35" y="16" width="2" height="2" fill="#171820"/>
</svg>
