<svg xmlns="http://www.w3.org/2000/svg" viewBox="0 0 64 64" width="64" height="64" shape-rendering="crispEdges">
  <!-- chr_swordsman crit S frame 1 (prepared ahead — not yet wired into entity.json, see extra/README.md) — foot pivot (32,54). Colors: Sand/Warm Wood (tunic) · Parchment (skin) · Deep Brown/Soil Brown (hair+pants) · Rift Violet/Rift Light/Rift Deep (signature violet sword). -->
  <rect x="28" y="40" width="6" height="9" fill="#68483A" stroke="#171820" stroke-width="1"/>
  <rect x="27" y="40" width="1" height="9" fill="#4A332E"/>
  <rect x="27" y="49" width="7" height="5" fill="#171820"/>
  <rect x="31" y="40" width="6" height="9" fill="#68483A" stroke="#171820" stroke-width="1"/>
  <rect x="30" y="40" width="1" height="9" fill="#4A332E"/>
  <rect x="31" y="49" width="7" height="5" fill="#171820"/>
  <rect x="20" y="27" width="6" height="12" fill="#D8AE70" stroke="#171820" stroke-width="1"/>
  <rect x="20" y="39" width="6" height="4" fill="#F2D6A0"/>
  <polygon points="24,26 40,26 38,40 26,40" fill="#D8AE70" stroke="#171820" stroke-width="1"/>
  <polygon points="24,26 28,26 28,40 26,40" fill="#B47E52"/>
  <rect x="30" y="29" width="4" height="2" fill="#FFF0C5"/>
  <rect x="26" y="38" width="12" height="3" fill="#8E6046"/>
  <rect x="31" y="38" width="2" height="3" fill="#FFF0C5"/>
  <rect x="35" y="24" width="8" height="10" fill="#D8AE70" stroke="#171820" stroke-width="1"/>
  <rect x="45" y="30" width="4" height="4" fill="#F2D6A0"/>
  <rect x="47" y="29" width="3" height="4" fill="#68483A"/>
  <rect x="49" y="27" width="2" height="7" fill="#171820"/>
  <polygon points="14,46 50,26 52,30 17,51" fill="#7B4FCB" stroke="#171820" stroke-width="1"/>
  <polygon points="15,44 50,24 51,26 16,47" fill="#B79BEF"/>
  <polygon points="10,50 52,20 58,26 14,56" fill="#3E2A78"/>
  <polygon points="12,48 53,19 55,22 14,52" fill="#B79BEF"/>
  <rect x="8" y="52" width="2" height="2" fill="#B79BEF"/>
  <rect x="56" y="20" width="2" height="2" fill="#B79BEF"/>
  <polygon points="27,8 39,8 43,12 43,22 39,26 27,26 23,22 23,12" fill="#F2D6A0" stroke="#171820" stroke-width="1"/>
  <polygon points="23,12 25,6 28,10 31,5 35,5 38,10 41,6 43,12 43,15 23,15" fill="#4A332E" stroke="#171820" stroke-width="1"/>
  <polygon points="31,6 34,6 32,10" fill="#68483A"/>
  <rect x="28" y="18" width="2" height="2" fill="#171820"/>
  <rect x="36" y="18" width="2" height="2" fill="#171820"/>
</svg>
