<svg xmlns="http://www.w3.org/2000/svg" viewBox="0 0 64 64" width="64" height="64" shape-rendering="crispEdges">
  <!-- chr_swordsman dead S frame 1 (prepared ahead — not yet wired into entity.json, see extra/README.md) — foot pivot (32,54). Colors: Sand/Warm Wood (tunic) · Parchment (skin) · Deep Brown/Soil Brown (hair+pants) · Rift Violet/Rift Light/Rift Deep (signature violet sword). -->
  <rect x="22" y="42" width="6" height="6" fill="#68483A" stroke="#171820" stroke-width="1"/>
  <rect x="21" y="42" width="1" height="6" fill="#4A332E"/>
  <rect x="21" y="51" width="7" height="5" fill="#171820"/>
  <rect x="37" y="42" width="6" height="6" fill="#68483A" stroke="#171820" stroke-width="1"/>
  <rect x="36" y="42" width="1" height="6" fill="#4A332E"/>
  <rect x="37" y="51" width="7" height="5" fill="#171820"/>
  <rect x="23" y="31" width="6" height="12" fill="#D8AE70" stroke="#171820" stroke-width="1"/>
  <rect x="23" y="43" width="6" height="4" fill="#F2D6A0"/>
  <polygon points="24,30 40,30 38,44 26,44" fill="#D8AE70" stroke="#171820" stroke-width="1"/>
  <polygon points="24,30 28,30 28,44 26,44" fill="#B47E52"/>
  <rect x="30" y="33" width="4" height="2" fill="#FFF0C5"/>
  <rect x="26" y="42" width="12" height="3" fill="#8E6046"/>
  <rect x="31" y="42" width="2" height="3" fill="#FFF0C5"/>
  <rect x="41" y="35" width="6" height="11" fill="#D8AE70" stroke="#171820" stroke-width="1"/>
  <rect x="42" y="46" width="5" height="4" fill="#F2D6A0"/>
  <rect x="41" y="46" width="4" height="3" fill="#68483A"/>
  <rect x="39" y="49" width="7" height="2" fill="#171820"/>
  <polygon points="38,51 41,51 33,61 31,60" fill="#7B4FCB" stroke="#171820" stroke-width="1"/>
  <rect x="38" y="52" width="1" height="8" fill="#B79BEF"/>
  <polygon points="28,12 40,12 44,16 44,26 40,30 28,30 24,26 24,16" fill="#F2D6A0" stroke="#171820" stroke-width="1"/>
  <polygon points="24,16 26,10 29,14 32,9 36,9 39,14 42,10 44,16 44,19 24,19" fill="#4A332E" stroke="#171820" stroke-width="1"/>
  <polygon points="32,10 35,10 33,14" fill="#68483A"/>
  <rect x="29" y="22" width="2" height="2" fill="#171820"/>
  <rect x="37" y="22" width="2" height="2" fill="#171820"/>
</svg>
