<svg xmlns="http://www.w3.org/2000/svg" viewBox="0 0 64 64" width="64" height="64" shape-rendering="crispEdges">
  <!-- chr_swordsman dead S frame 0 (prepared ahead — not yet wired into entity.json, see extra/README.md) — foot pivot (32,54). Colors: Sand/Warm Wood (tunic) · Parchment (skin) · Deep Brown/Soil Brown (hair+pants) · Rift Violet/Rift Light/Rift Deep (signature violet sword). -->
  <rect x="24" y="41" width="6" height="8" fill="#68483A" stroke="#171820" stroke-width="1"/>
  <rect x="23" y="41" width="1" height="8" fill="#4A332E"/>
  <rect x="23" y="50" width="7" height="5" fill="#171820"/>
  <rect x="35" y="41" width="6" height="8" fill="#68483A" stroke="#171820" stroke-width="1"/>
  <rect x="34" y="41" width="1" height="8" fill="#4A332E"/>
  <rect x="35" y="50" width="7" height="5" fill="#171820"/>
  <rect x="21" y="29" width="6" height="12" fill="#D8AE70" stroke="#171820" stroke-width="1"/>
  <rect x="21" y="41" width="6" height="4" fill="#F2D6A0"/>
  <polygon points="24,28 40,28 38,42 26,42" fill="#D8AE70" stroke="#171820" stroke-width="1"/>
  <polygon points="24,28 28,28 28,42 26,42" fill="#B47E52"/>
  <rect x="30" y="31" width="4" height="2" fill="#FFF0C5"/>
  <rect x="26" y="40" width="12" height="3" fill="#8E6046"/>
  <rect x="31" y="40" width="2" height="3" fill="#FFF0C5"/>
  <rect x="40" y="31" width="6" height="11" fill="#D8AE70" stroke="#171820" stroke-width="1"/>
  <rect x="41" y="42" width="5" height="4" fill="#F2D6A0"/>
  <rect x="40" y="42" width="4" height="3" fill="#68483A"/>
  <rect x="38" y="45" width="7" height="2" fill="#171820"/>
  <polygon points="37,47 40,47 32,57 30,56" fill="#7B4FCB" stroke="#171820" stroke-width="1"/>
  <rect x="37" y="48" width="1" height="8" fill="#B79BEF"/>
  <polygon points="27,10 39,10 43,14 43,24 39,28 27,28 23,24 23,14" fill="#F2D6A0" stroke="#171820" stroke-width="1"/>
  <polygon points="23,14 25,8 28,12 31,7 35,7 38,12 41,8 43,14 43,17 23,17" fill="#4A332E" stroke="#171820" stroke-width="1"/>
  <polygon points="31,8 34,8 32,12" fill="#68483A"/>
  <rect x="28" y="20" width="2" height="2" fill="#171820"/>
  <rect x="36" y="20" width="2" height="2" fill="#171820"/>
</svg>
