<svg xmlns="http://www.w3.org/2000/svg" viewBox="0 0 64 32" width="64" height="32" shape-rendering="crispEdges">
  <defs>
    <clipPath id="gB">
      <path d="M32,0 L64,16 L32,32 L0,16 Z"/>
    </clipPath>
  </defs>
  <path d="M32,0 L64,16 L32,32 L0,16 Z" fill="#3F6845"/>
  <g clip-path="url(#gB)">
    <ellipse cx="34" cy="12" rx="9" ry="4" fill="#284536"/>
    <ellipse cx="18" cy="20" rx="6" ry="3" fill="#284536"/>
    <ellipse cx="48" cy="18" rx="5" ry="2.5" fill="#284536"/>
    <path d="M31,13 L33,7 L35,13 Z" fill="#6F9658"/>
    <path d="M34,14 L36,9 L38,14 Z" fill="#9DB56C"/>
    <path d="M15,21 L17,16 L19,21 Z" fill="#6F9658"/>
    <path d="M45,19 L47,14 L49,19 Z" fill="#6F9658"/>
    <path d="M25,24 L26.5,20 L28,24 Z" fill="#9DB56C"/>
    <ellipse cx="41" cy="25" rx="1.6" ry="1" fill="#C8D691"/>
  </g>
</svg>
