<svg xmlns="http://www.w3.org/2000/svg" viewBox="0 0 64 32" width="64" height="32" shape-rendering="crispEdges">
  <defs>
    <clipPath id="gA">
      <path d="M32,0 L64,16 L32,32 L0,16 Z"/>
    </clipPath>
  </defs>
  <path d="M32,0 L64,16 L32,32 L0,16 Z" fill="#3F6845"/>
  <g clip-path="url(#gA)">
    <ellipse cx="20" cy="14" rx="7" ry="3.5" fill="#284536"/>
    <path d="M16,15 L18,9 L20,15 Z" fill="#6F9658"/>
    <path d="M19,16 L21,10 L23,16 Z" fill="#6F9658"/>
    <path d="M22,15 L23.5,11 L25,15 Z" fill="#9DB56C"/>
    <ellipse cx="43" cy="19" rx="6" ry="3" fill="#284536"/>
    <path d="M40,20 L42,14 L44,20 Z" fill="#6F9658"/>
    <path d="M43,21 L45,15 L47,21 Z" fill="#9DB56C"/>
    <path d="M30,25 L32,20 L34,25 Z" fill="#6F9658"/>
    <path d="M33,26 L34.5,22 L36,26 Z" fill="#9DB56C"/>
    <path d="M47,12 L48.5,8.5 L50,12 Z" fill="#6F9658"/>
    <ellipse cx="27" cy="10" rx="1.6" ry="1" fill="#C8D691"/>
    <ellipse cx="38" cy="24" rx="1.6" ry="1" fill="#C8D691"/>
  </g>
</svg>
