<svg xmlns="http://www.w3.org/2000/svg" viewBox="0 0 112 88" width="112" height="88" shape-rendering="crispEdges">
  <!-- น้ำพุลานกลางเมือง — ศิลาผนึกกลางน้ำ resonance teal -->
  <path d="M56,84 L104,66 L56,48 L8,66 Z" fill="#68483A"/>
  <path d="M56,80 L96,65 L56,50 L16,65 Z" fill="#8E6046"/>
  <path d="M56,76 L88,64 L56,52 L24,64 Z" fill="#294B5A"/>
  <path d="M56,73 L82,63.5 L56,54 L30,63.5 Z" fill="#3F7180"/>
  <path d="M56,70 L76,63 L56,56 L36,63 Z" fill="#64A0A0"/>
  <rect x="48" y="26" width="16" height="34" fill="#D8AE70"/>
  <path d="M48,26 L56,18 L64,26 Z" fill="#F2D6A0"/>
  <circle cx="56" cy="34" r="7" fill="#167C78"/>
  <circle cx="56" cy="34" r="4.5" fill="#35C6B0"/>
  <circle cx="56" cy="34" r="2" fill="#7CE9D0"/>
  <path d="M50,20 Q44,28 46,40 L44,40 Q41,28 47,18 Z" fill="#A4CCC0"/>
  <path d="M62,20 Q68,28 66,40 L68,40 Q71,28 65,18 Z" fill="#A4CCC0"/>
  <ellipse cx="44" cy="62" rx="3" ry="1.5" fill="#A4CCC0"/>
  <ellipse cx="68" cy="62" rx="3" ry="1.5" fill="#A4CCC0"/>
</svg>
