<svg xmlns="http://www.w3.org/2000/svg" viewBox="0 0 64 32" width="64" height="32" shape-rendering="crispEdges">
  <defs>
    <clipPath id="gC">
      <path d="M32,0 L64,16 L32,32 L0,16 Z"/>
    </clipPath>
  </defs>
  <path d="M32,0 L64,16 L32,32 L0,16 Z" fill="#3F6845"/>
  <g clip-path="url(#gC)">
    <ellipse cx="30" cy="18" rx="8" ry="4" fill="#284536"/>
    <path d="M25,19 L27,13 L29,19 Z" fill="#9DB56C"/>
    <path d="M28,20 L30,14 L32,20 Z" fill="#6F9658"/>
    <path d="M31,19 L33,13 L35,19 Z" fill="#9DB56C"/>
    <path d="M34,20 L35.5,15 L37,20 Z" fill="#6F9658"/>
    <path d="M44,13 L46,8 L48,13 Z" fill="#6F9658"/>
    <path d="M47,14 L48.5,10 L50,14 Z" fill="#9DB56C"/>
    <path d="M14,17 L15.5,13 L17,17 Z" fill="#6F9658"/>
    <ellipse cx="22" cy="24" rx="1.6" ry="1" fill="#C8D691"/>
    <ellipse cx="40" cy="22" rx="1.4" ry="0.9" fill="#C8D691"/>
    <ellipse cx="52" cy="17" rx="1.4" ry="0.9" fill="#C8D691"/>
  </g>
</svg>
