<svg xmlns="http://www.w3.org/2000/svg" viewBox="0 0 144 120" width="144" height="120" shape-rendering="crispEdges">
  <!-- ร้านตีเหล็ก — อาคารไม้ ปล่องไฟ ป้ายทั่ง แสงไฟส้มจากหน้าต่าง -->
  <path d="M72,108 L132,92 L72,76 L12,92 Z" fill="#4A332E"/>
  <rect x="24" y="48" width="96" height="44" fill="#8E6046"/>
  <path d="M24,48 L24,92 L12,92 Z" fill="#68483A"/>
  <path d="M120,48 L120,92 L132,92 Z" fill="#68483A"/>
  <rect x="30" y="54" width="20" height="18" fill="#F4B852"/>
  <rect x="33" y="57" width="14" height="12" fill="#DD6840"/>
  <rect x="58" y="60" width="24" height="32" fill="#2B2230"/>
  <path d="M58,60 L70,50 L82,60 Z" fill="#2B2230"/>
  <path d="M14,54 L72,26 L130,54 L122,60 L72,36 L22,60 Z" fill="#2B2230"/>
  <path d="M22,60 L72,36 L122,60 L72,80 Z" fill="#4A332E"/>
  <rect x="96" y="18" width="14" height="34" fill="#68483A"/>
  <rect x="94" y="14" width="18" height="6" fill="#4A332E"/>
  <ellipse cx="103" cy="8" rx="6" ry="4" fill="#A4CCC0"/>
  <rect x="88" y="66" width="22" height="16" fill="#D8AE70"/>
  <path d="M92,70 L106,70 L104,76 L98,76 L98,79 L94,79 L94,76 L92,74 Z" fill="#171820"/>
</svg>
