<svg xmlns="http://www.w3.org/2000/svg" viewBox="0 0 64 32" width="64" height="32" shape-rendering="crispEdges">
  <defs>
    <clipPath id="gE">
      <path d="M32,0 L64,16 L32,32 L0,16 Z"/>
    </clipPath>
  </defs>
  <path d="M32,0 L64,16 L32,32 L0,16 Z" fill="#3F6845"/>
  <g clip-path="url(#gE)">
    <ellipse cx="38" cy="15" rx="6" ry="3" fill="#284536"/>
    <path d="M35,16 L37,11 L39,16 Z" fill="#6F9658"/>
    <path d="M38,17 L39.5,12.5 L41,17 Z" fill="#9DB56C"/>
    <path d="M18,21 L20,16 L22,21 Z" fill="#6F9658"/>
    <path d="M21,22 L22.5,18 L24,22 Z" fill="#9DB56C"/>
    <path d="M27,11 L28.5,7.5 L30,11 Z" fill="#6F9658"/>
    <ellipse cx="46" cy="21" rx="1.6" ry="1" fill="#C8D691"/>
    <ellipse cx="26" cy="17" rx="1.4" ry="0.9" fill="#9DB56C"/>
  </g>
</svg>
