<svg xmlns="http://www.w3.org/2000/svg" viewBox="0 0 64 32" width="64" height="32" shape-rendering="crispEdges">
  <defs>
    <clipPath id="gF">
      <path d="M32,0 L64,16 L32,32 L0,16 Z"/>
    </clipPath>
  </defs>
  <path d="M32,0 L64,16 L32,32 L0,16 Z" fill="#3F6845"/>
  <g clip-path="url(#gF)">
    <ellipse cx="16" cy="16" rx="6" ry="3" fill="#284536"/>
    <ellipse cx="30" cy="22" rx="7" ry="3" fill="#284536"/>
    <ellipse cx="46" cy="14" rx="6" ry="3" fill="#284536"/>
    <path d="M13,17 L15,12 L17,17 Z" fill="#6F9658"/>
    <path d="M27,23 L29,18 L31,23 Z" fill="#9DB56C"/>
    <path d="M30,24 L32,19 L34,24 Z" fill="#6F9658"/>
    <path d="M43,15 L45,10 L47,15 Z" fill="#6F9658"/>
    <path d="M46,16 L47.5,12 L49,16 Z" fill="#9DB56C"/>
    <path d="M37,9 L38.5,6 L40,9 Z" fill="#6F9658"/>
    <ellipse cx="21" cy="25" rx="1.6" ry="1" fill="#C8D691"/>
    <ellipse cx="53" cy="19" rx="1.4" ry="0.9" fill="#C8D691"/>
  </g>
</svg>
